<?xml version="1.0" standalone="no"?>
<!DOCTYPE svg PUBLIC "-//W3C//DTD SVG 20010904//EN"
 "http://www.w3.org/TR/2001/REC-SVG-20010904/DTD/svg10.dtd">
<svg version="1.0" xmlns="http://www.w3.org/2000/svg"
 width="260.000000pt" height="260.000000pt" viewBox="0 0 260.000000 260.000000"
 preserveAspectRatio="xMidYMid meet">
<metadata>
Created by potrace 1.14, written by Peter Selinger 2001-2017
</metadata>
<g transform="translate(0.000000,260.000000) scale(0.100000,-0.100000)"
fill="#000000" stroke="none">
<path d="M1379 2418 c0 -13 -2 -32 -4 -43 -2 -11 -6 -37 -9 -57 -9 -58 -49
-136 -120 -234 -225 -315 -319 -524 -315 -707 5 -235 85 -411 258 -568 l66
-59 17 52 c36 106 87 188 223 355 92 114 143 201 166 283 17 61 17 279 0 365
-34 174 -153 468 -239 588 -19 26 -36 47 -38 47 -2 0 -4 -10 -5 -22z"/>
<path d="M1754 1850 c21 -109 26 -298 10 -376 -21 -103 -103 -245 -232 -403
-34 -41 -74 -102 -91 -135 -31 -64 -48 -150 -32 -161 6 -3 27 1 48 10 20 9 82
27 138 41 127 32 169 51 228 104 109 97 142 182 141 370 0 154 -25 264 -88
395 -47 95 -132 204 -122 155z"/>
<path d="M802 1535 c-135 -148 -181 -332 -122 -488 22 -60 72 -132 118 -173
41 -35 131 -80 187 -93 45 -10 140 -22 133 -16 -2 1 -29 23 -61 49 -73 59 -84
71 -130 130 -42 55 -74 134 -84 209 -16 106 -9 298 13 405 3 17 4 32 1 32 -3
0 -28 -25 -55 -55z"/>
<path d="M1825 739 c-16 -5 -39 -11 -50 -13 -36 -8 -170 -38 -185 -41 -77 -16
-200 -62 -200 -75 0 -8 166 -54 260 -71 59 -10 72 -9 135 11 39 12 77 23 85
25 88 22 105 31 108 60 5 38 -23 89 -54 104 -29 13 -57 13 -99 0z"/>
<path d="M722 658 c-24 -31 -42 -80 -42 -115 0 -62 -9 -59 190 -79 69 -7 166
-33 244 -66 123 -51 202 -68 501 -104 22 -2 73 -16 113 -29 40 -14 74 -25 77
-25 2 0 2 26 -1 58 -7 67 10 111 52 138 13 9 23 18 22 20 -2 1 -41 8 -88 14
-116 16 -340 67 -425 96 -73 26 -139 43 -190 50 -16 2 -48 6 -70 9 -75 12 -90
14 -137 19 -26 4 -78 10 -115 16 -91 13 -119 12 -131 -2z"/>
<path d="M1902 420 c-55 -33 -70 -133 -27 -176 51 -51 135 2 135 86 0 31 -26
99 -39 101 -3 0 -13 2 -23 4 -9 2 -29 -5 -46 -15z"/>
<path d="M815 399 c-27 -11 -52 -22 -54 -24 -2 -2 11 -16 28 -30 37 -32 49
-71 45 -142 l-3 -53 112 60 c62 33 136 72 165 87 60 30 63 27 -61 77 -113 45
-167 51 -232 25z"/>
<path d="M670 327 c-64 -32 -67 -167 -4 -196 65 -29 125 7 130 79 3 43 -15
102 -33 113 -22 14 -70 16 -93 4z"/>
</g>
</svg>
