<svg width="78" height="18" viewBox="0 0 78 18" fill="none" xmlns="http://www.w3.org/2000/svg">
<g clip-path="url(#clip0_7089_17791)">
<path d="M56.3435 0H53.897V13.7996H56.4423V7.48225H57.4885C58.0774 7.48225 58.3369 7.01879 58.3369 7.01879L59.0124 5.762C59.1936 5.26514 58.5552 5.29854 58.5552 5.29854H56.3805L56.3435 0Z" fill="black"/>
<path d="M49.5601 2.49684H51.327V0.617929H40.2025V2.49684H41.99V10.8643H39.9883V12.7724H51.7719V10.8643H49.5601V2.49684ZM47.0519 10.8643H44.4777V2.49684H47.0519V10.8643ZM13.2539 13.5323H15.7416V0.00415039H13.2539V13.5365V13.5323ZM10.3173 4.92691C10.3173 2.30895 7.9573 0.154464 5.14836 0.154464C2.33941 0.154464 0 2.30895 0 4.92691C0 7.54486 2.36001 9.70352 5.14836 9.70352C7.93671 9.70352 10.3173 7.56574 10.3173 4.92691ZM2.48769 4.92691C2.48769 3.37785 3.67799 2.30478 5.14836 2.30478C6.61873 2.30478 7.80491 3.37367 7.80491 4.92691C7.80491 6.48014 6.6352 7.56991 5.14836 7.56991C3.66151 7.56991 2.48769 6.45927 2.48769 4.92691ZM22.0473 8.92691V7.30269H29.9511V5.39455H22.0473V2.6054H29.9511V0.538597H19.7038V9.49058C19.7532 10.2213 20.2145 11.1231 20.5852 11.5532C21.7014 12.8434 23.147 12.6806 23.147 12.6806H29.9964V10.6472H23.666C22.1709 10.5595 22.0432 8.92691 22.0432 8.92691H22.0473ZM33.7609 5.30269H31.5862C31.5862 5.30269 30.8901 5.24423 31.129 5.76615L31.8045 7.02294C31.8045 7.02294 32.064 7.48641 32.6529 7.48641H33.6991V13.8037H36.2444V0.00415039H33.7979L33.765 5.29851L33.7609 5.30269ZM75.1001 11.8998V4.11689C75.0466 3.27346 74.5111 2.22962 74.0828 1.73275C72.7936 0.242146 71.1256 0.430038 71.1256 0.430038H62.151V2.5219H70.5242C72.2541 2.6221 72.3982 4.20874 72.3982 4.20874V5.32357H62.2045V7.39037H72.3982V11.858H60.6106V13.8789H77.04V11.8998H75.1001ZM5.57258 13.7035L5.47785 12.3674H3.07666V14.0376C3.22905 16.4008 4.72825 17.3152 4.77356 17.357C5.50256 18.0459 7.3189 18 7.3189 18H15.6592V15.8998H7.97789C5.63436 15.9332 5.5767 13.7035 5.5767 13.7035H5.57258Z" fill="black"/>
</g>
<defs>
<clipPath id="clip0_7089_17791">
<rect width="77.04" height="18" fill="white"/>
</clipPath>
</defs>
</svg>
