<svg width="44" height="44" viewBox="0 0 44 44" fill="none" xmlns="http://www.w3.org/2000/svg">
<g clip-path="url(#clip0_1591_2313)">
<path d="M11 18.6154C11 17.5108 11.8954 16.6154 13 16.6154H31C32.1046 16.6154 33 17.5108 33 18.6154V30C33 31.1045 32.1046 32 31 32H13C11.8954 32 11 31.1045 11 30V18.6154Z" fill="#AAC2E1"/>
<path d="M25.9286 16.0384V15.6111C25.9286 15.2144 25.7216 14.8339 25.3532 14.5534C24.9849 14.2729 24.4852 14.1154 23.9643 14.1154H20.0357C19.5147 14.1154 19.0151 14.2729 18.6467 14.5534C18.2784 14.8339 18.0714 15.2144 18.0714 15.6111V16.0384" stroke="#91ADD0" stroke-width="1.8" stroke-linecap="square" stroke-linejoin="round"/>
</g>
<defs>
<clipPath id="clip0_1591_2313">
<rect width="22" height="20" fill="white" transform="translate(11 12)"/>
</clipPath>
</defs>
</svg>
