<svg width="34" height="34" viewBox="0 0 34 34" fill="none" xmlns="http://www.w3.org/2000/svg">
<path fill-rule="evenodd" clip-rule="evenodd" d="M25.2114 5H10.9206H9.05029H4L6.05735 8.73833V24.7603C6.05735 27.4884 8.2011 29.7 10.846 29.7H25.2114C27.8563 29.7 30 27.4884 30 24.7603V9.93974C30 7.21159 27.8563 5 25.2114 5Z" fill="#EF3E43"/>
<path fill-rule="evenodd" clip-rule="evenodd" d="M10.6854 22.9636H12.914V11.7363H10.6854V22.9636Z" fill="white"/>
<path fill-rule="evenodd" clip-rule="evenodd" d="M22.7455 22.9636V16.0134C22.7455 15.2681 22.5613 14.6883 22.1925 14.2743C21.8238 13.8599 21.2235 13.653 20.3926 13.653H17.1969V22.9636H15.1428V11.7363H20.305C21.7214 11.7363 22.8245 12.0319 23.6147 12.6239C24.4049 13.2155 24.8 14.1085 24.8 15.3034V22.9636H22.7455Z" fill="white"/>
</svg>
