<svg width="44" height="44" viewBox="0 0 44 44" fill="none" xmlns="http://www.w3.org/2000/svg">
<path fill-rule="evenodd" clip-rule="evenodd" d="M14.3333 13C13.0447 13 12 14.0447 12 15.3333V26.3333C12 28.9107 14.0893 31 16.6667 31H27.3333C29.9107 31 32 28.9107 32 26.3333V15.3333C32 14.0447 30.9553 13 29.6667 13H14.3333ZM18.9905 17.127V16.327H17.3905V17.127C17.3905 18.4 17.8962 19.6209 18.7964 20.5211C19.6965 21.4213 20.9174 21.927 22.1905 21.927C23.4635 21.927 24.6844 21.4213 25.5846 20.5211C26.4848 19.6209 26.9905 18.4 26.9905 17.127V16.327H25.3905V17.127C25.3905 17.9757 25.0533 18.7896 24.4532 19.3897C23.8531 19.9898 23.0392 20.327 22.1905 20.327C21.3418 20.327 20.5279 19.9898 19.9277 19.3897C19.3276 18.7896 18.9905 17.9757 18.9905 17.127Z" fill="#B0C9E9"/>
<path fill-rule="evenodd" clip-rule="evenodd" d="M14.3333 13C13.0447 13 12 14.0447 12 15.3333V26.3333C12 28.9107 14.0893 31 16.6667 31H27.3333C29.9107 31 32 28.9107 32 26.3333V15.3333C32 14.0447 30.9553 13 29.6667 13H14.3333ZM18.9905 17.127V16.327H17.3905V17.127C17.3905 18.4 17.8962 19.6209 18.7964 20.5211C19.6965 21.4213 20.9174 21.927 22.1905 21.927C23.4635 21.927 24.6844 21.4213 25.5846 20.5211C26.4848 19.6209 26.9905 18.4 26.9905 17.127V16.327H25.3905V17.127C25.3905 17.9757 25.0533 18.7896 24.4532 19.3897C23.8531 19.9898 23.0392 20.327 22.1905 20.327C21.3418 20.327 20.5279 19.9898 19.9277 19.3897C19.3276 18.7896 18.9905 17.9757 18.9905 17.127Z" fill="url(#paint0_linear_1_486)" fill-opacity="0.3" style="mix-blend-mode:overlay"/>
<defs>
<linearGradient id="paint0_linear_1_486" x1="30.5" y1="30" x2="19" y2="17.5" gradientUnits="userSpaceOnUse">
<stop offset="0.333333"/>
<stop offset="1" stop-opacity="0"/>
</linearGradient>
</defs>
</svg>
