<svg width="44" height="44" viewBox="0 0 44 44" fill="none" xmlns="http://www.w3.org/2000/svg">
<g clip-path="url(#clip0_1_470)">
<path fill-rule="evenodd" clip-rule="evenodd" d="M21.326 31.2156C21.6697 31.5593 22.2268 31.5593 22.5704 31.2156L27.8002 25.9858C28.1439 25.6422 28.1439 25.085 27.8002 24.7414L16.0962 13.0374C15.7526 12.6938 15.1955 12.6938 14.8518 13.0374L13.1716 14.7176C13.3075 15.2267 13.1758 15.7924 12.7764 16.1918C12.377 16.5912 11.8113 16.7229 11.3022 16.587L9.62203 18.2672C9.27839 18.6108 9.27839 19.168 9.62203 19.5116L21.326 31.2156Z" fill="#B0C9E9"/>
<path fill-rule="evenodd" clip-rule="evenodd" d="M21.326 31.2156C21.6697 31.5593 22.2268 31.5593 22.5704 31.2156L27.8002 25.9858C28.1439 25.6422 28.1439 25.085 27.8002 24.7414L16.0962 13.0374C15.7526 12.6938 15.1955 12.6938 14.8518 13.0374L13.1716 14.7176C13.3075 15.2267 13.1758 15.7924 12.7764 16.1918C12.377 16.5912 11.8113 16.7229 11.3022 16.587L9.62203 18.2672C9.27839 18.6108 9.27839 19.168 9.62203 19.5116L21.326 31.2156Z" fill="#91ADD0" fill-opacity="0.8"/>
<path fill-rule="evenodd" clip-rule="evenodd" d="M21.326 31.2156C21.6697 31.5593 22.2268 31.5593 22.5704 31.2156L27.8002 25.9858C28.1439 25.6422 28.1439 25.085 27.8002 24.7414L16.0962 13.0374C15.7526 12.6938 15.1955 12.6938 14.8518 13.0374L13.1716 14.7176C13.3075 15.2267 13.1758 15.7924 12.7764 16.1918C12.377 16.5912 11.8113 16.7229 11.3022 16.587L9.62203 18.2672C9.27839 18.6108 9.27839 19.168 9.62203 19.5116L21.326 31.2156Z" fill="url(#paint0_linear_1_470)" fill-opacity="0.3" style="mix-blend-mode:overlay"/>
<path fill-rule="evenodd" clip-rule="evenodd" d="M16.2584 24.9036C15.9148 25.2472 15.9148 25.8044 16.2584 26.148L21.4882 31.3778C21.8319 31.7215 22.389 31.7215 22.7326 31.3778L34.4367 19.6738C34.7803 19.3302 34.7803 18.773 34.4367 18.4294L32.7564 16.7492C32.2473 16.8851 31.6816 16.7534 31.2822 16.354C30.8828 15.9546 30.7511 15.3889 30.8871 14.8798L29.2069 13.1996C28.8632 12.856 28.3061 12.856 27.9624 13.1996L16.2584 24.9036Z" fill="#B0C9E9"/>
</g>
<defs>
<linearGradient id="paint0_linear_1_470" x1="25.9998" y1="27.1609" x2="16.9998" y2="18.1609" gradientUnits="userSpaceOnUse">
<stop offset="0.192708"/>
<stop offset="1" stop-opacity="0"/>
</linearGradient>
<clipPath id="clip0_1_470">
<rect width="20" height="26.6667" fill="white" transform="translate(9 32) rotate(-90)"/>
</clipPath>
</defs>
</svg>
