<svg width="44" height="44" viewBox="0 0 44 44" fill="none" xmlns="http://www.w3.org/2000/svg">
<path fill-rule="evenodd" clip-rule="evenodd" d="M12.1299 13.8799C12.1299 13.4657 12.4657 13.1299 12.8799 13.1299H18.1595C19.2919 13.1299 20.3779 13.5797 21.1786 14.3805C21.9794 15.1812 22.4292 16.2672 22.4292 17.3996V29.7187C22.4292 30.1329 22.0934 30.4687 21.6792 30.4687C21.265 30.4687 20.9292 30.1329 20.9292 29.7187C20.9292 29.2175 20.7301 28.7368 20.3757 28.3824C20.0213 28.028 19.5406 27.8289 19.0394 27.8289H12.8799C12.4657 27.8289 12.1299 27.4931 12.1299 27.0789V13.8799ZM24.8614 14.3805C25.6621 13.5797 26.7482 13.1299 27.8806 13.1299H33.1602C33.5744 13.1299 33.9102 13.4657 33.9102 13.8799V27.0789C33.9102 27.4931 33.5744 27.8289 33.1602 27.8289H27.0006C26.4994 27.8289 26.0188 28.028 25.6643 28.3824C25.3099 28.7368 25.1108 29.2175 25.1108 29.7187C25.1108 30.1329 24.7751 30.4687 24.3608 30.4687C23.9466 30.4687 23.6108 30.1329 23.6108 29.7187V17.3996C23.6108 16.2672 24.0607 15.1812 24.8614 14.3805Z" fill="#B0C9E9"/>
<path fill-rule="evenodd" clip-rule="evenodd" d="M12.1299 13.8799C12.1299 13.4657 12.4657 13.1299 12.8799 13.1299H18.1595C19.2919 13.1299 20.3779 13.5797 21.1786 14.3805C21.9794 15.1812 22.4292 16.2672 22.4292 17.3996V29.7187C22.4292 30.1329 22.0934 30.4687 21.6792 30.4687C21.265 30.4687 20.9292 30.1329 20.9292 29.7187C20.9292 29.2175 20.7301 28.7368 20.3757 28.3824C20.0213 28.028 19.5406 27.8289 19.0394 27.8289H12.8799C12.4657 27.8289 12.1299 27.4931 12.1299 27.0789V13.8799ZM24.8614 14.3805C25.6621 13.5797 26.7482 13.1299 27.8806 13.1299H33.1602C33.5744 13.1299 33.9102 13.4657 33.9102 13.8799V27.0789C33.9102 27.4931 33.5744 27.8289 33.1602 27.8289H27.0006C26.4994 27.8289 26.0188 28.028 25.6643 28.3824C25.3099 28.7368 25.1108 29.2175 25.1108 29.7187C25.1108 30.1329 24.7751 30.4687 24.3608 30.4687C23.9466 30.4687 23.6108 30.1329 23.6108 29.7187V17.3996C23.6108 16.2672 24.0607 15.1812 24.8614 14.3805Z" fill="url(#paint0_linear_1_492)" fill-opacity="0.3" style="mix-blend-mode:overlay"/>
<defs>
<linearGradient id="paint0_linear_1_492" x1="31" y1="30.4687" x2="19" y2="18.4687" gradientUnits="userSpaceOnUse">
<stop/>
<stop offset="1" stop-opacity="0"/>
</linearGradient>
</defs>
</svg>
